<svg xmlns="http://www.w3.org/2000/svg" xmlns:xlink="http://www.w3.org/1999/xlink" width="625" zoomAndPan="magnify" viewBox="0 0 468.75 211.499994" height="282" preserveAspectRatio="xMidYMid meet" version="1.0"><defs><g/><clipPath id="29a426116e"><rect x="0" width="236" y="0" height="98"/></clipPath></defs><g fill="#f0f4fa" fill-opacity="1"><g transform="translate(30.378356, 117.024582)"><g><path d="M 36.234375 -65.109375 L 51.125 -66.625 L 57.3125 -5.828125 L 42.421875 -4.3125 L 40.03125 -27.75 L 18.171875 -25.53125 L 20.5625 -2.09375 L 5.65625 -0.578125 L -0.53125 -61.375 L 14.375 -62.890625 L 16.765625 -39.34375 L 38.625 -41.5625 Z M 36.234375 -65.109375 "/></g></g></g><g fill="#f0f4fa" fill-opacity="1"><g transform="translate(88.624248, 111.093545)"><g><path d="M 1.40625 -61.34375 L 46.734375 -64.515625 L 47.703125 -50.671875 L 17.328125 -48.546875 L 18.015625 -38.78125 L 42.40625 -40.484375 L 43.375 -26.640625 L 18.984375 -24.9375 L 19.65625 -15.28125 L 50.03125 -17.40625 L 51 -3.5625 L 5.671875 -0.390625 Z M 1.40625 -61.34375 "/></g></g></g><g fill="#f0f4fa" fill-opacity="1"><g transform="translate(137.677318, 107.536365)"><g><path d="M 18.828125 -47.796875 L 19.390625 -33.21875 L 33.34375 -33.765625 C 35.207031 -33.835938 36.867188 -34.46875 38.328125 -35.65625 C 39.785156 -36.84375 40.460938 -38.734375 40.359375 -41.328125 C 40.253906 -43.921875 39.429688 -45.753906 37.890625 -46.828125 C 36.347656 -47.910156 34.644531 -48.414062 32.78125 -48.34375 Z M 42.421875 -24.234375 C 45.367188 -20.546875 48.34375 -16.878906 51.34375 -13.234375 C 54.34375 -9.597656 57.28125 -5.96875 60.15625 -2.34375 L 41.90625 -1.625 C 38.125 -6.28125 34.378906 -10.914062 30.671875 -15.53125 C 26.960938 -20.15625 23.253906 -24.789062 19.546875 -29.4375 L 20.65625 -0.796875 L 5.6875 -0.21875 L 3.3125 -61.28125 L 32.234375 -62.40625 C 36.160156 -62.5625 39.757812 -61.785156 43.03125 -60.078125 C 46.300781 -58.367188 48.925781 -56.019531 50.90625 -53.03125 C 52.882812 -50.050781 53.941406 -46.734375 54.078125 -43.078125 C 54.234375 -39.015625 53.242188 -35.289062 51.109375 -31.90625 C 48.984375 -28.53125 46.085938 -25.972656 42.421875 -24.234375 Z M 42.421875 -24.234375 "/></g></g></g><g fill="#f0f4fa" fill-opacity="1"><g transform="translate(193.896434, 105.495361)"><g><path d="M 4.609375 -61.1875 L 19.578125 -61.421875 L 20.5625 -0.328125 L 5.59375 -0.09375 Z M 4.609375 -61.1875 "/></g></g></g><g fill="#f0f4fa" fill-opacity="1"><g transform="translate(215.548687, 104.947657)"><g><path d="M 2.40625 -61.09375 L 53.328125 -60.828125 L 53.265625 -46.9375 L 35.296875 -47.03125 L 35.046875 0.1875 L 20.0625 0.109375 L 20.3125 -47.109375 L 2.34375 -47.203125 Z M 2.40625 -61.09375 "/></g></g></g><g fill="#f0f4fa" fill-opacity="1"><g transform="translate(265.894402, 105.055691)"><g><path d="M 43.96875 -10.71875 L 21.515625 -11.5625 L 16.65625 0.625 L 0.40625 0.015625 L 27.140625 -60.125 L 42.109375 -59.5625 L 64.25 2.421875 L 47.890625 1.796875 Z M 26.921875 -25.265625 L 39.59375 -24.796875 L 33.984375 -42.78125 Z M 26.921875 -25.265625 "/></g></g></g><g fill="#f0f4fa" fill-opacity="1"><g transform="translate(325.725865, 107.23549)"><g><path d="M 62.265625 -33.015625 L 59.796875 0.84375 C 56.046875 1.96875 52.003906 2.722656 47.671875 3.109375 C 43.335938 3.503906 39.445312 3.578125 36 3.328125 C 28.832031 2.804688 22.941406 0.988281 18.328125 -2.125 C 13.710938 -5.238281 10.359375 -9.21875 8.265625 -14.0625 C 6.179688 -18.914062 5.347656 -24.195312 5.765625 -29.90625 C 6.191406 -35.738281 7.867188 -40.921875 10.796875 -45.453125 C 13.734375 -49.984375 17.875 -53.457031 23.21875 -55.875 C 28.570312 -58.300781 35.101562 -59.234375 42.8125 -58.671875 C 45.394531 -58.484375 48.394531 -58.078125 51.8125 -57.453125 C 55.238281 -56.835938 58.253906 -56.066406 60.859375 -55.140625 L 59.765625 -39.90625 C 57.703125 -40.988281 54.976562 -41.921875 51.59375 -42.703125 C 48.21875 -43.484375 44.96875 -43.984375 41.84375 -44.203125 C 36.601562 -44.585938 32.488281 -44.203125 29.5 -43.046875 C 26.507812 -41.898438 24.359375 -40.101562 23.046875 -37.65625 C 21.742188 -35.21875 20.96875 -32.273438 20.71875 -28.828125 C 20.5 -25.773438 20.757812 -22.96875 21.5 -20.40625 C 22.238281 -17.851562 23.851562 -15.753906 26.34375 -14.109375 C 28.832031 -12.460938 32.566406 -11.457031 37.546875 -11.09375 C 38.742188 -11.007812 40.023438 -10.96875 41.390625 -10.96875 C 42.753906 -10.96875 44.171875 -10.984375 45.640625 -11.015625 L 46.3125 -20.265625 L 33.375 -21.203125 L 34.390625 -35.046875 Z M 62.265625 -33.015625 "/></g></g></g><g fill="#f0f4fa" fill-opacity="1"><g transform="translate(384.317316, 111.490351)"><g><path d="M 12.015625 -60.1875 L 57.203125 -55.46875 L 55.75 -41.65625 L 25.46875 -44.8125 L 24.453125 -35.078125 L 48.765625 -32.546875 L 47.328125 -18.75 L 23.015625 -21.28125 L 22 -11.640625 L 52.28125 -8.484375 L 50.84375 5.3125 L 5.65625 0.59375 Z M 12.015625 -60.1875 "/></g></g></g><g transform="matrix(1, 0, 0, 1, 109, 102)"><g clip-path="url(#29a426116e)"><g fill="#ffd51e" fill-opacity="1"><g transform="translate(4.051479, 72.823746)"><g><path d="M -1.1875 -48.546875 L 1.109375 -48.65625 L 21.265625 -3.84375 L 37.171875 -50.34375 L 39.421875 -50.4375 L 22.546875 -1.046875 L 20.265625 -0.9375 Z M 22.375 -11.59375 L 21.296875 -8.859375 L 3.359375 -48.765625 L 5.609375 -48.875 Z M 24.359375 -17.484375 L 23.375 -14.53125 L 7.890625 -48.96875 L 10.171875 -49.078125 Z M 26.3125 -23.4375 L 25.34375 -20.4375 L 12.4375 -49.1875 L 14.6875 -49.296875 Z M 50.75 -50.96875 L 53.046875 -51.078125 L 36.125 -1.6875 L 33.890625 -1.578125 Z M 46.25 -50.765625 L 48.5 -50.859375 L 31.59375 -1.46875 L 29.34375 -1.359375 Z M 41.6875 -50.546875 L 43.96875 -50.65625 L 27.046875 -1.265625 L 24.796875 -1.15625 Z M 41.6875 -50.546875 "/></g></g></g><g fill="#ffd51e" fill-opacity="1"><g transform="translate(57.420945, 70.294397)"><g><path d="M 23.4375 -14.671875 L 24.25 -16.78125 L 31.46875 -16.921875 L 32.34375 -14.8125 Z M 21.875 -10.421875 L 22.640625 -12.546875 L 33.171875 -12.71875 L 34.125 -10.625 Z M 20.3125 -6.15625 L 21.078125 -8.296875 L 34.921875 -8.53125 L 35.84375 -6.421875 Z M 3.25 -0.0625 L 0.96875 -0.015625 L 19.328125 -48.890625 L 21.609375 -48.921875 L 41.625 -0.734375 L 39.359375 -0.6875 L 20.515625 -46.078125 Z M 20.859375 -41.0625 L 22.109375 -38.375 L 7.765625 -0.140625 L 5.515625 -0.09375 Z M 23.3125 -35.53125 L 24.46875 -32.65625 L 12.34375 -0.21875 L 10.046875 -0.171875 Z M 25.625 -29.765625 L 26.8125 -26.84375 L 16.859375 -0.296875 L 14.59375 -0.25 Z M 55.234375 -0.96875 L 52.953125 -0.921875 L 32.953125 -49.125 L 35.203125 -49.15625 Z M 30.671875 -49.078125 L 50.6875 -0.890625 L 48.4375 -0.84375 L 28.40625 -49.046875 Z M 26.125 -49 L 46.171875 -0.8125 L 43.875 -0.765625 L 23.859375 -48.96875 Z M 26.125 -49 "/></g></g></g><g fill="#ffd51e" fill-opacity="1"><g transform="translate(110.589764, 69.334565)"><g><path d="M 37.140625 -20.9375 L 37.4375 -48.140625 L 39.546875 -48.125 L 39.25 -20.921875 C 39.21875 -17.953125 38.015625 -15.421875 35.640625 -13.328125 C 33.273438 -11.234375 30.445312 -10.203125 27.15625 -10.234375 C 23.875 -10.273438 21.070312 -11.363281 18.75 -13.5 C 16.4375 -15.644531 15.296875 -18.203125 15.328125 -21.171875 L 15.625 -48.375 L 17.734375 -48.359375 L 17.4375 -21.15625 C 17.414062 -18.769531 18.359375 -16.710938 20.265625 -14.984375 C 22.171875 -13.265625 24.476562 -12.390625 27.1875 -12.359375 C 29.90625 -12.328125 32.238281 -13.148438 34.1875 -14.828125 C 36.132812 -16.515625 37.117188 -18.550781 37.140625 -20.9375 Z M 41.359375 -20.890625 L 41.65625 -48.09375 L 43.765625 -48.078125 L 43.46875 -20.875 C 43.445312 -18.84375 42.992188 -16.90625 42.109375 -15.0625 C 41.234375 -13.21875 40.0625 -11.628906 38.59375 -10.296875 C 37.132812 -8.960938 35.40625 -7.910156 33.40625 -7.140625 C 31.40625 -6.378906 29.304688 -6.007812 27.109375 -6.03125 C 24.921875 -6.050781 22.835938 -6.46875 20.859375 -7.28125 C 18.878906 -8.09375 17.171875 -9.179688 15.734375 -10.546875 C 14.304688 -11.921875 13.171875 -13.535156 12.328125 -15.390625 C 11.492188 -17.242188 11.085938 -19.1875 11.109375 -21.21875 L 11.40625 -48.421875 L 13.515625 -48.40625 L 13.21875 -21.203125 C 13.195312 -18.867188 13.800781 -16.703125 15.03125 -14.703125 C 16.269531 -12.710938 17.960938 -11.128906 20.109375 -9.953125 C 22.265625 -8.773438 24.609375 -8.171875 27.140625 -8.140625 C 29.679688 -8.109375 32.035156 -8.660156 34.203125 -9.796875 C 36.378906 -10.929688 38.109375 -12.476562 39.390625 -14.4375 C 40.679688 -16.40625 41.335938 -18.554688 41.359375 -20.890625 Z M 45.578125 -20.84375 L 45.875 -48.046875 L 47.984375 -48.03125 L 47.6875 -20.828125 C 47.65625 -18.222656 47.082031 -15.738281 45.96875 -13.375 C 44.863281 -11.007812 43.394531 -8.976562 41.5625 -7.28125 C 39.726562 -5.582031 37.539062 -4.238281 35 -3.25 C 32.46875 -2.257812 29.820312 -1.78125 27.0625 -1.8125 C 24.3125 -1.84375 21.679688 -2.378906 19.171875 -3.421875 C 16.671875 -4.460938 14.519531 -5.851562 12.71875 -7.59375 C 10.914062 -9.332031 9.484375 -11.394531 8.421875 -13.78125 C 7.367188 -16.164062 6.859375 -18.660156 6.890625 -21.265625 L 7.1875 -48.46875 L 9.296875 -48.453125 L 9 -21.25 C 8.96875 -18.15625 9.753906 -15.285156 11.359375 -12.640625 C 12.972656 -9.992188 15.171875 -7.882812 17.953125 -6.3125 C 20.742188 -4.75 23.789062 -3.945312 27.09375 -3.90625 C 30.40625 -3.875 33.46875 -4.613281 36.28125 -6.125 C 39.101562 -7.632812 41.347656 -9.691406 43.015625 -12.296875 C 44.691406 -14.898438 45.546875 -17.75 45.578125 -20.84375 Z M 49.796875 -20.796875 L 50.09375 -48 L 52.203125 -47.984375 L 51.90625 -20.78125 C 51.863281 -16.5625 50.71875 -12.65625 48.46875 -9.0625 C 46.21875 -5.476562 43.191406 -2.65625 39.390625 -0.59375 C 35.585938 1.457031 31.46875 2.457031 27.03125 2.40625 C 22.601562 2.351562 18.507812 1.257812 14.75 -0.875 C 10.988281 -3.019531 8.023438 -5.90625 5.859375 -9.53125 C 3.691406 -13.164062 2.628906 -17.09375 2.671875 -21.3125 L 2.96875 -48.515625 L 5.078125 -48.5 L 4.78125 -21.296875 C 4.75 -18.421875 5.3125 -15.65625 6.46875 -13 C 7.632812 -10.34375 9.210938 -8.050781 11.203125 -6.125 C 13.191406 -4.207031 15.570312 -2.664062 18.34375 -1.5 C 21.125 -0.332031 24.023438 0.265625 27.046875 0.296875 C 30.078125 0.328125 32.988281 -0.207031 35.78125 -1.3125 C 38.582031 -2.414062 41 -3.90625 43.03125 -5.78125 C 45.0625 -7.664062 46.6875 -9.921875 47.90625 -12.546875 C 49.132812 -15.171875 49.765625 -17.921875 49.796875 -20.796875 Z M 49.796875 -20.796875 "/></g></g></g><g fill="#ffd51e" fill-opacity="1"><g transform="translate(162.0061, 69.971646)"><g><path d="M 4.375 -48.421875 L 6.5 -48.34375 L 4.84375 0.171875 L 2.71875 0.09375 Z M 17.03125 -47.984375 L 19.140625 -47.921875 L 17.84375 -9.953125 L 34.734375 -9.375 L 34.65625 -7.265625 L 17.765625 -7.84375 L 17.703125 -5.734375 L 34.59375 -5.15625 L 34.515625 -3.046875 L 17.625 -3.625 L 17.5625 -1.515625 L 34.453125 -0.9375 L 34.375 1.171875 L 15.375 0.53125 Z M 12.828125 -48.140625 L 14.921875 -48.0625 L 13.265625 0.453125 L 11.171875 0.375 Z M 8.609375 -48.28125 L 10.71875 -48.203125 L 9.0625 0.3125 L 6.953125 0.234375 Z M 8.609375 -48.28125 "/></g></g></g><g fill="#ffd51e" fill-opacity="1"><g transform="translate(195.495124, 71.094127)"><g><path d="M 4.203125 -46.28125 L 4.3125 -48.390625 L 35.921875 -46.734375 L 35.8125 -44.625 Z M 3.984375 -42.046875 L 4.09375 -44.15625 L 35.703125 -42.5 L 35.59375 -40.390625 Z M 3.765625 -37.84375 L 3.875 -39.9375 L 35.484375 -38.28125 L 35.375 -36.1875 L 26.953125 -36.640625 L 24.96875 1.296875 L 22.859375 1.1875 L 24.84375 -36.75 L 22.734375 -36.859375 L 20.75 1.078125 L 18.640625 0.96875 L 20.625 -36.96875 L 18.53125 -37.078125 L 16.546875 0.859375 L 14.4375 0.75 L 16.421875 -37.1875 L 14.3125 -37.296875 L 12.328125 0.640625 L 10.21875 0.53125 L 12.203125 -37.40625 Z M 3.765625 -37.84375 "/></g></g></g></g></g></svg>