<svg viewBox="0 0 1200 400" xmlns="http://www.w3.org/2000/svg">
  <defs>
    <linearGradient id="skyGradient" x1="0%" y1="0%" x2="0%" y2="100%">
      <stop offset="0%" style="stop-color:#1e3a8a;stop-opacity:1" />
      <stop offset="50%" style="stop-color:#3b82f6;stop-opacity:1" />
      <stop offset="100%" style="stop-color:#60a5fa;stop-opacity:1" />
    </linearGradient>
    <linearGradient id="buildingGradient" x1="0%" y1="0%" x2="0%" y2="100%">
      <stop offset="0%" style="stop-color:#374151;stop-opacity:1" />
      <stop offset="100%" style="stop-color:#1f2937;stop-opacity:1" />
    </linearGradient>
    <linearGradient id="lightGradient" x1="0%" y1="0%" x2="0%" y2="100%">
      <stop offset="0%" style="stop-color:#fbbf24;stop-opacity:1" />
      <stop offset="100%" style="stop-color:#f59e0b;stop-opacity:1" />
    </linearGradient>
  </defs>
  
  <!-- Sky Background -->
  <rect width="1200" height="400" fill="url(#skyGradient)"/>
  
  <!-- City Skyline -->
  <!-- Building 1 -->
  <rect x="50" y="200" width="80" height="200" fill="url(#buildingGradient)"/>
  <rect x="60" y="210" width="8" height="12" fill="url(#lightGradient)"/>
  <rect x="75" y="220" width="8" height="12" fill="url(#lightGradient)"/>
  <rect x="90" y="215" width="8" height="12" fill="url(#lightGradient)"/>
  <rect x="105" y="225" width="8" height="12" fill="url(#lightGradient)"/>
  
  <!-- Building 2 -->
  <rect x="130" y="150" width="60" height="250" fill="url(#buildingGradient)"/>
  <rect x="140" y="160" width="6" height="10" fill="url(#lightGradient)"/>
  <rect x="150" y="170" width="6" height="10" fill="url(#lightGradient)"/>
  <rect x="160" y="165" width="6" height="10" fill="url(#lightGradient)"/>
  <rect x="170" y="175" width="6" height="10" fill="url(#lightGradient)"/>
  
  <!-- Building 3 (Tallest) -->
  <rect x="190" y="80" width="90" height="320" fill="url(#buildingGradient)"/>
  <rect x="200" y="90" width="10" height="15" fill="url(#lightGradient)"/>
  <rect x="220" y="100" width="10" height="15" fill="url(#lightGradient)"/>
  <rect x="240" y="95" width="10" height="15" fill="url(#lightGradient)"/>
  <rect x="260" y="105" width="10" height="15" fill="url(#lightGradient)"/>
  
  <!-- Building 4 -->
  <rect x="280" y="180" width="70" height="220" fill="url(#buildingGradient)"/>
  <rect x="290" y="190" width="8" height="12" fill="url(#lightGradient)"/>
  <rect x="305" y="200" width="8" height="12" fill="url(#lightGradient)"/>
  <rect x="320" y="195" width="8" height="12" fill="url(#lightGradient)"/>
  
  <!-- Building 5 -->
  <rect x="350" y="120" width="85" height="280" fill="url(#buildingGradient)"/>
  <rect x="360" y="130" width="10" height="15" fill="url(#lightGradient)"/>
  <rect x="380" y="140" width="10" height="15" fill="url(#lightGradient)"/>
  <rect x="400" y="135" width="10" height="15" fill="url(#lightGradient)"/>
  <rect x="420" y="145" width="10" height="15" fill="url(#lightGradient)"/>
  
  <!-- Building 6 -->
  <rect x="435" y="160" width="75" height="240" fill="url(#buildingGradient)"/>
  <rect x="445" y="170" width="8" height="12" fill="url(#lightGradient)"/>
  <rect x="460" y="180" width="8" height="12" fill="url(#lightGradient)"/>
  <rect x="475" y="175" width="8" height="12" fill="url(#lightGradient)"/>
  <rect x="490" y="185" width="8" height="12" fill="url(#lightGradient)"/>
  
  <!-- Building 7 -->
  <rect x="510" y="100" width="95" height="300" fill="url(#buildingGradient)"/>
  <rect x="520" y="110" width="12" height="18" fill="url(#lightGradient)"/>
  <rect x="545" y="120" width="12" height="18" fill="url(#lightGradient)"/>
  <rect x="570" y="115" width="12" height="18" fill="url(#lightGradient)"/>
  <rect x="590" y="125" width="12" height="18" fill="url(#lightGradient)"/>
  
  <!-- Building 8 -->
  <rect x="605" y="140" width="80" height="260" fill="url(#buildingGradient)"/>
  <rect x="615" y="150" width="10" height="15" fill="url(#lightGradient)"/>
  <rect x="635" y="160" width="10" height="15" fill="url(#lightGradient)"/>
  <rect x="655" y="155" width="10" height="15" fill="url(#lightGradient)"/>
  <rect x="670" y="165" width="10" height="15" fill="url(#lightGradient)"/>
  
  <!-- Building 9 -->
  <rect x="685" y="90" width="100" height="310" fill="url(#buildingGradient)"/>
  <rect x="695" y="100" width="12" height="18" fill="url(#lightGradient)"/>
  <rect x="720" y="110" width="12" height="18" fill="url(#lightGradient)"/>
  <rect x="745" y="105" width="12" height="18" fill="url(#lightGradient)"/>
  <rect x="765" y="115" width="12" height="18" fill="url(#lightGradient)"/>
  
  <!-- Building 10 -->
  <rect x="785" y="170" width="70" height="230" fill="url(#buildingGradient)"/>
  <rect x="795" y="180" width="8" height="12" fill="url(#lightGradient)"/>
  <rect x="810" y="190" width="8" height="12" fill="url(#lightGradient)"/>
  <rect x="825" y="185" width="8" height="12" fill="url(#lightGradient)"/>
  <rect x="840" y="195" width="8" height="12" fill="url(#lightGradient)"/>
  
  <!-- Building 11 -->
  <rect x="855" y="110" width="90" height="290" fill="url(#buildingGradient)"/>
  <rect x="865" y="120" width="10" height="15" fill="url(#lightGradient)"/>
  <rect x="885" y="130" width="10" height="15" fill="url(#lightGradient)"/>
  <rect x="905" y="125" width="10" height="15" fill="url(#lightGradient)"/>
  <rect x="925" y="135" width="10" height="15" fill="url(#lightGradient)"/>
  
  <!-- Building 12 -->
  <rect x="945" y="190" width="75" height="210" fill="url(#buildingGradient)"/>
  <rect x="955" y="200" width="8" height="12" fill="url(#lightGradient)"/>
  <rect x="970" y="210" width="8" height="12" fill="url(#lightGradient)"/>
  <rect x="985" y="205" width="8" height="12" fill="url(#lightGradient)"/>
  <rect x="1000" y="215" width="8" height="12" fill="url(#lightGradient)"/>
  
  <!-- Building 13 -->
  <rect x="1020" y="130" width="85" height="270" fill="url(#buildingGradient)"/>
  <rect x="1030" y="140" width="10" height="15" fill="url(#lightGradient)"/>
  <rect x="1050" y="150" width="10" height="15" fill="url(#lightGradient)"/>
  <rect x="1070" y="145" width="10" height="15" fill="url(#lightGradient)"/>
  <rect x="1090" y="155" width="10" height="15" fill="url(#lightGradient)"/>
  
  <!-- Building 14 -->
  <rect x="1105" y="200" width="65" height="200" fill="url(#buildingGradient)"/>
  <rect x="1115" y="210" width="8" height="12" fill="url(#lightGradient)"/>
  <rect x="1130" y="220" width="8" height="12" fill="url(#lightGradient)"/>
  <rect x="1145" y="215" width="8" height="12" fill="url(#lightGradient)"/>
  <rect x="1155" y="225" width="8" height="12" fill="url(#lightGradient)"/>
  
  <!-- Stars/Lights in Sky -->
  <circle cx="100" cy="50" r="2" fill="#fbbf24" opacity="0.8"/>
  <circle cx="300" cy="30" r="1.5" fill="#fbbf24" opacity="0.6"/>
  <circle cx="500" cy="40" r="2" fill="#fbbf24" opacity="0.7"/>
  <circle cx="700" cy="25" r="1.5" fill="#fbbf24" opacity="0.8"/>
  <circle cx="900" cy="35" r="2" fill="#fbbf24" opacity="0.6"/>
  <circle cx="1100" cy="45" r="1.5" fill="#fbbf24" opacity="0.7"/>
</svg>