<svg width="64" height="64" viewBox="0 0 64 64" fill="none" xmlns="http://www.w3.org/2000/svg">
  <!-- Background Circle -->
  <circle cx="32" cy="32" r="30" fill="#0A2A5C" stroke="#CBA135" stroke-width="2"/>
  
  <!-- Newspaper Icon -->
  <rect x="16" y="18" width="32" height="28" rx="2" fill="white" stroke="#0A2A5C" stroke-width="1"/>
  
  <!-- Header Lines -->
  <rect x="20" y="22" width="24" height="2" fill="#0A2A5C"/>
  <rect x="20" y="26" width="16" height="1" fill="#CBA135"/>
  
  <!-- Content Lines -->
  <rect x="20" y="30" width="20" height="1" fill="#0A2A5C" opacity="0.7"/>
  <rect x="20" y="32" width="18" height="1" fill="#0A2A5C" opacity="0.7"/>
  <rect x="20" y="34" width="22" height="1" fill="#0A2A5C" opacity="0.7"/>
  
  <!-- Chart/Graph Section -->
  <rect x="20" y="38" width="24" height="6" fill="#f8f9fa" stroke="#0A2A5C" stroke-width="0.5"/>
  
  <!-- Mini Chart Bars -->
  <rect x="22" y="42" width="2" height="2" fill="#CBA135"/>
  <rect x="25" y="41" width="2" height="3" fill="#0A2A5C"/>
  <rect x="28" y="40" width="2" height="4" fill="#CBA135"/>
  <rect x="31" y="41.5" width="2" height="2.5" fill="#0A2A5C"/>
  <rect x="34" y="39" width="2" height="5" fill="#CBA135"/>
  <rect x="37" y="40.5" width="2" height="3.5" fill="#0A2A5C"/>
  <rect x="40" y="41" width="2" height="3" fill="#CBA135"/>
  
  <!-- Dollar Sign Overlay -->
  <circle cx="48" cy="24" r="6" fill="#CBA135"/>
  <text x="48" y="28" text-anchor="middle" fill="white" font-family="Arial, sans-serif" font-size="8" font-weight="bold">$</text>
</svg>